<?xml version="1.0" encoding="UTF-8"?>
<svg id="Layer_2" data-name="Layer 2" xmlns="http://www.w3.org/2000/svg" viewBox="0 0 4662.63 813.06">
  <defs>
    <style>
      .cls-1 {
        fill: #3d3433;
        stroke-width: 0px;
      }
    </style>
  </defs>
  <g id="Layer_1-2" data-name="Layer 1">
    <g>
      <path class="cls-1" d="m1013.94,478.8h92.9c1.83,15.61,9.05,29.7,21.68,42.33,12.61,12.61,29.25,22.48,49.9,29.58,20.63,7.12,43.79,10.68,69.48,10.68,23.41,0,42.67-2.53,57.81-7.57,15.14-5.04,26.36-12.16,33.71-21.34,7.34-9.18,11.02-20.18,11.02-33.03s-4.59-21.9-13.77-28.56c-9.18-6.65-23.63-12.14-43.36-16.51-19.73-4.35-45.64-8.82-77.76-13.42-25.22-3.67-49.09-8.82-71.56-15.48-22.48-6.65-42.33-15.25-59.53-25.8s-30.73-23.5-40.59-38.88c-9.88-15.36-14.8-33.6-14.8-54.7,0-26.14,7.45-49.09,22.37-68.81,14.9-19.73,37.04-35.1,66.39-46.11,29.36-11,65.38-16.51,108.05-16.51,64.21,0,113.64,13.66,148.29,40.94,34.63,27.3,51.49,64.8,50.57,112.52h-89.45c-1.84-27.06-13.19-46.56-34.07-58.5-20.87-11.92-47.13-17.89-78.79-17.89-29.36,0-53.57,4.37-72.61,13.06-19.03,8.72-28.55,23.65-28.55,44.73,0,8.26,2.28,15.48,6.88,21.68,4.57,6.2,12.38,11.58,23.4,16.17,11,4.59,25.91,8.94,44.73,13.08,18.79,4.12,42.2,8.26,70.19,12.38,26.14,3.68,49.88,8.62,71.22,14.81,21.34,6.18,39.67,14.22,55.05,24.07,15.37,9.88,27.19,22.37,35.44,37.51,8.26,15.14,12.39,33.73,12.39,55.75,0,27.06-7.01,50.57-20.99,70.53-14,19.95-35.55,35.43-64.69,46.45-29.14,11-66.86,16.51-113.19,16.51-33.03,0-62.18-3.56-87.4-10.68-25.24-7.1-47.03-16.62-65.36-28.55-18.35-11.92-33.28-25-44.73-39.22-11.47-14.22-19.62-28.44-24.43-42.67-4.81-14.2-6.79-27.06-5.85-38.54h0Z"/>
      <path class="cls-1" d="m1471.21,286.8h177.54v69.5h-177.54v-69.5Zm0-93.58h89.46v435.58h-89.46V193.22Z"/>
      <path class="cls-1" d="m1829.82,636.37c-33.96,0-64.79-7.46-92.55-22.37-27.77-14.89-49.77-35.77-66.05-62.62-16.29-26.83-24.44-57.9-24.44-93.24s8.27-67.66,24.78-94.27c16.5-26.61,38.88-47.37,67.08-62.27,28.22-14.91,60.21-22.37,96-22.37,39.44,0,71.22,7.91,95.3,23.74,24.08,15.83,41.63,37.27,52.64,64.33,11.02,27.08,16.51,57.36,16.51,90.84,0,20.2-3.22,40.72-9.63,61.59-6.43,20.88-16.29,40.14-29.59,57.81-13.31,17.65-30.73,31.89-52.29,42.66-21.59,10.79-47.49,16.17-77.77,16.17h0Zm28.91-68.81c27.06,0,50.46-4.57,70.19-13.77,19.71-9.16,34.85-22.01,45.42-38.54,10.55-16.51,15.83-35.54,15.83-57.11,0-23.4-5.4-43.23-16.17-59.53-10.78-16.28-25.92-28.66-45.42-37.15-19.51-8.49-42.78-12.74-69.84-12.74-38.08,0-67.67,9.97-88.76,29.94-21.12,19.95-31.67,46.45-31.67,79.47,0,22.02,5.06,41.19,15.14,57.47,10.08,16.28,24.19,29.01,42.33,38.18,18.11,9.19,39.1,13.77,62.96,13.77h0Zm131.43-280.75h89.46v341.99h-83.27c-2.29-17.89-3.92-33.71-4.82-47.48-.92-13.77-1.37-27.28-1.37-40.6v-253.92Z"/>
      <path class="cls-1" d="m2118.23,286.82h89.46v341.99h-89.46v-341.99Zm220.9,73.62c-25.71,0-47.95,4.93-66.75,14.8-18.81,9.88-33.95,21.91-45.4,36.13-11.47,14.22-19.53,27.98-24.1,41.28l-.69-37.85c.45-5.49,2.28-13.64,5.51-24.43,3.2-10.77,8.02-22.48,14.44-35.09,6.43-12.63,14.9-24.79,25.47-36.48,10.53-11.71,23.4-21.21,38.54-28.56,15.14-7.34,32.79-11,52.99-11v81.19Z"/>
      <path class="cls-1" d="m2368.61,286.81h89.46v341.99h-89.46v-341.99Zm248.43-7.57c21.1,0,40.6,2.75,58.48,8.26,17.9,5.51,33.48,14,46.81,25.46,13.28,11.47,23.61,26.05,30.95,43.7,7.34,17.67,11.02,38.66,11.02,62.96v209.19h-89.45v-193.36c0-28.91-7.01-50.12-20.99-63.65-14-13.53-36.82-20.31-68.47-20.31-23.85,0-45.42,4.6-64.69,13.77-19.26,9.18-34.87,20.76-46.79,34.76-11.92,14-18.81,28.55-20.63,43.69l-.7-35.09c2.31-16.06,7.59-31.65,15.84-46.79,8.26-15.14,19.38-29.01,33.37-41.64,13.98-12.61,30.62-22.58,49.9-29.94,19.26-7.32,41.03-11,65.36-11h0Zm297.97,0c21.09,0,40.6,2.75,58.48,8.26,17.89,5.51,33.48,14,46.79,25.46,13.3,11.47,23.76,26.05,31.31,43.7,7.59,17.67,11.36,38.66,11.36,62.96v209.19h-89.46v-193.36c0-28.91-7.12-50.12-21.32-63.65-14.23-13.53-37.16-20.31-68.81-20.31-23.86,0-45.42,4.6-64.69,13.77-19.26,9.18-34.87,20.76-46.79,34.76-11.94,14-18.59,28.55-19.95,43.69l-1.39-37.16c2.29-15.14,7.8-30.28,16.53-45.4,8.71-15.14,20.16-28.91,34.4-41.3,14.22-12.38,30.84-22.24,49.88-29.59,19.04-7.32,40.27-11,63.66-11h0Z"/>
      <path class="cls-1" d="m3276.61,636.37c-33.96,0-64.79-7.46-92.55-22.37-27.77-14.89-49.77-35.77-66.05-62.62-16.29-26.83-24.44-57.9-24.44-93.24s8.27-67.66,24.78-94.27c16.5-26.61,38.88-47.37,67.08-62.27,28.22-14.91,60.21-22.37,96-22.37,39.44,0,71.22,7.91,95.3,23.74,24.08,15.83,41.63,37.27,52.64,64.33,11.02,27.08,16.51,57.36,16.51,90.84,0,20.2-3.22,40.72-9.63,61.59-6.43,20.88-16.29,40.14-29.59,57.81-13.31,17.65-30.73,31.89-52.29,42.66-21.59,10.79-47.49,16.17-77.77,16.17h0Zm28.91-68.81c27.06,0,50.46-4.57,70.19-13.77,19.71-9.16,34.85-22.01,45.42-38.54,10.55-16.51,15.83-35.54,15.83-57.11,0-23.4-5.4-43.23-16.17-59.53-10.78-16.28-25.92-28.66-45.42-37.15-19.51-8.49-42.78-12.74-69.84-12.74-38.08,0-67.67,9.97-88.76,29.94-21.12,19.95-31.67,46.45-31.67,79.47,0,22.02,5.06,41.19,15.14,57.47,10.08,16.28,24.19,29.01,42.33,38.18,18.11,9.19,39.1,13.77,62.96,13.77h0Zm131.43-280.75h89.46v341.99h-83.27c-2.29-17.89-3.92-33.71-4.82-47.48-.92-13.77-1.37-27.28-1.37-40.6v-253.92Z"/>
      <path class="cls-1" d="m3565.03,286.81h89.46v341.99h-89.46v-341.99Zm248.41-7.57c21.1,0,40.6,2.75,58.5,8.26,17.89,5.51,33.48,14,46.79,25.46,13.3,11.47,23.63,26.05,30.97,43.7,7.34,17.67,11,38.66,11,62.96v209.19h-89.45v-193.36c0-28.91-7.01-50.12-20.99-63.65-14-13.53-36.82-20.31-68.47-20.31-23.85,0-45.4,4.6-64.68,13.77-19.26,9.18-34.87,20.76-46.79,34.76-11.94,14-18.82,28.55-20.65,43.69l-.69-35.09c2.28-16.06,7.57-31.65,15.83-46.79,8.26-15.14,19.37-29.01,33.39-41.64,13.98-12.61,30.61-22.58,49.88-29.94,19.26-7.32,41.05-11,65.36-11h0Z"/>
      <path class="cls-1" d="m4024.91,628.81l209.19-445.22h99.08l211.25,445.22h-99.76l-183.05-401.18h44.05l-181.67,401.18h-99.08Zm110.78-173.42h294.52v76.38h-294.52v-76.38Z"/>
      <rect class="cls-1" x="4571.1" y="183.59" width="91.52" height="445.22"/>
    </g>
  </g>
</svg>